<?xml version="1.0" standalone="no"?>
<!DOCTYPE svg PUBLIC "-//W3C//DTD SVG 20010904//EN"
 "http://www.w3.org/TR/2001/REC-SVG-20010904/DTD/svg10.dtd">
<svg version="1.0" xmlns="http://www.w3.org/2000/svg"
 width="850.000000pt" height="850.000000pt" viewBox="0 0 850.000000 850.000000"
 preserveAspectRatio="xMidYMid meet">
<metadata>
Created by potrace 1.11, written by Peter Selinger 2001-2013
</metadata>
<g transform="translate(0.000000,850.000000) scale(0.100000,-0.100000)"
fill="#000000" stroke="none">
<path d="M3320 8496 c0 -3 33 -67 72 -143 40 -76 102 -208 138 -293 36 -85
108 -234 160 -330 141 -260 148 -277 171 -398 l21 -111 -21 -29 c-11 -16 -18
-32 -14 -36 3 -3 -25 -6 -63 -6 -128 0 -372 -71 -664 -193 -111 -46 -146 -64
-198 -100 -73 -49 -160 -80 -206 -73 -48 8 -140 48 -152 67 -13 21 -59 153
-124 357 -33 103 -72 206 -89 234 -17 27 -31 58 -31 68 0 18 -19 30 -46 30 -8
0 -32 -16 -54 -36 -21 -20 -44 -33 -50 -29 -6 3 -10 -3 -10 -15 0 -36 -115
-251 -188 -351 -38 -53 -77 -110 -87 -128 -15 -31 -19 -32 -57 -26 -33 6 -44
3 -66 -17 -15 -13 -42 -34 -61 -47 -33 -23 -35 -23 -48 -6 -7 11 -13 22 -13
27 0 4 -5 8 -10 8 -6 0 -8 -10 -6 -22 31 -152 31 -154 2 -243 -15 -47 -31 -87
-37 -90 -5 -4 -9 -32 -10 -63 -1 -106 -9 -107 -71 -12 -30 47 -65 103 -78 125
-13 22 -64 92 -113 155 -49 63 -134 186 -190 273 -138 213 -150 233 -192 305
-20 34 -38 62 -41 62 -3 0 0 -9 6 -20 6 -11 9 -24 6 -28 -3 -5 4 -21 15 -38
10 -16 19 -36 19 -45 0 -9 7 -22 15 -29 8 -7 12 -16 9 -21 -3 -5 -1 -9 4 -9 9
0 162 -231 162 -245 0 -4 -8 -1 -17 6 -16 13 -16 13 0 -10 12 -18 13 -29 6
-43 -8 -14 -5 -26 13 -51 13 -17 22 -37 20 -44 -1 -6 2 -14 8 -18 5 -3 10 -12
10 -20 0 -25 -49 8 -56 38 -3 15 -12 34 -21 42 -8 8 -30 52 -48 98 -19 45 -34
76 -35 69 0 -17 45 -153 69 -206 107 -235 284 -885 248 -908 -7 -5 -73 -28
-147 -52 -204 -67 -523 -142 -730 -172 -198 -28 -277 -49 -150 -38 146 12 184
12 197 -2 15 -15 2 -27 -21 -18 -9 3 -16 1 -16 -5 0 -8 -14 -9 -42 -5 -30 5
-39 4 -34 -4 4 -7 3 -12 -3 -12 -5 0 -12 6 -14 13 -3 7 -6 5 -6 -5 -1 -10 5
-18 12 -19 6 0 1 -5 -13 -11 -16 -6 -85 -8 -192 -3 -145 6 -168 4 -168 -8 0
-12 23 -16 117 -21 237 -12 420 -26 523 -40 58 -9 227 -20 375 -25 269 -11
270 -11 370 -45 86 -30 102 -38 115 -65 8 -17 21 -31 28 -31 17 0 15 -7 -13
-44 -29 -38 -43 -76 -90 -240 -52 -185 -98 -486 -96 -641 1 -162 -13 -219 -65
-271 -23 -23 -57 -50 -75 -59 -31 -16 -39 -16 -128 -1 -53 10 -166 33 -251 53
-165 37 -366 59 -387 41 -16 -13 -17 -55 -2 -98 9 -26 9 -34 -2 -41 -11 -6
-10 -9 4 -15 29 -11 163 -226 213 -342 26 -59 56 -120 66 -135 21 -29 19 -34
-20 -76 -8 -8 -11 -23 -7 -35 4 -12 9 -47 11 -78 l5 -57 -38 -3 c-31 -3 -34
-5 -18 -12 11 -4 34 -14 50 -21 17 -7 46 -18 66 -24 33 -10 85 -59 175 -162
11 -13 40 -37 62 -52 23 -16 42 -32 42 -36 0 -10 -110 -21 -215 -21 -44 0
-123 -7 -175 -15 -93 -14 -286 -29 -523 -41 -94 -5 -117 -9 -117 -21 0 -12 23
-14 167 -8 108 5 177 3 193 -3 14 -6 19 -11 13 -11 -7 -1 -13 -9 -12 -18 0
-11 3 -13 6 -5 2 6 9 12 14 12 6 0 7 -5 3 -12 -5 -8 4 -9 34 -4 28 4 42 3 42
-5 0 -6 7 -8 16 -5 23 9 36 -3 21 -18 -13 -14 -51 -14 -197 -2 -127 11 -48
-10 150 -38 207 -30 526 -105 730 -172 74 -24 140 -47 147 -52 36 -23 -141
-673 -248 -908 -24 -53 -69 -189 -69 -206 1 -7 16 24 35 69 18 46 40 90 48 98
9 8 18 27 21 42 7 30 56 63 56 38 0 -8 -5 -17 -10 -20 -6 -4 -9 -12 -8 -18 2
-7 -7 -27 -20 -44 -18 -25 -21 -37 -13 -51 7 -14 6 -25 -6 -43 -16 -23 -16
-23 0 -10 9 7 17 10 17 6 0 -14 -153 -245 -162 -245 -5 0 -7 -4 -4 -9 3 -5 -1
-14 -9 -21 -8 -7 -15 -20 -15 -29 0 -9 -9 -29 -19 -45 -11 -17 -18 -33 -15
-38 3 -4 0 -17 -6 -28 -6 -11 -9 -20 -6 -20 3 0 21 28 41 63 42 71 54 91 192
304 56 87 141 210 190 273 49 63 125 174 169 245 44 72 105 170 135 218 39 63
79 111 142 169 81 75 90 80 135 82 l49 3 22 -48 c56 -123 497 -508 694 -606
75 -38 143 -99 161 -144 9 -21 16 -68 17 -105 2 -65 1 -66 -43 -112 -24 -26
-57 -63 -73 -82 -15 -19 -81 -93 -147 -164 -65 -70 -130 -150 -144 -178 -14
-27 -31 -51 -39 -55 -21 -7 -19 -47 3 -66 10 -9 36 -20 58 -25 24 -5 38 -14
36 -22 -2 -9 4 -10 20 -5 54 17 284 25 388 13 58 -6 127 -11 153 -10 48 1 49
1 64 -38 11 -27 23 -40 42 -45 34 -8 111 -48 111 -58 0 -4 -7 -19 -16 -32 -26
-39 -4 -29 66 30 38 33 81 60 105 66 22 6 56 15 76 20 20 5 48 9 62 9 14 0 47
11 73 25 44 24 84 32 84 19 0 -4 -28 -59 -62 -123 -35 -64 -92 -186 -128 -271
-36 -85 -98 -217 -138 -294 -40 -76 -71 -141 -68 -143 14 -15 37 14 75 93 29
61 45 84 50 75 7 -10 11 -8 16 9 5 16 9 19 15 10 6 -9 10 -6 15 10 5 17 9 19
16 9 6 -10 11 -6 18 14 6 16 11 33 11 38 0 5 7 9 15 9 8 0 15 7 15 15 0 18 12
19 27 4 9 -9 5 -20 -15 -45 -15 -19 -27 -37 -27 -41 0 -13 -68 -103 -77 -103
-4 0 -8 -5 -8 -12 0 -6 -8 -21 -17 -32 -10 -12 2 -3 25 19 24 22 62 65 85 95
103 136 172 216 322 374 148 156 344 336 365 336 21 0 217 -180 365 -336 150
-158 219 -238 322 -374 23 -30 61 -73 85 -95 23 -22 35 -31 25 -19 -9 11 -17
26 -17 32 0 7 -4 12 -8 12 -9 0 -77 90 -77 103 0 4 -12 22 -27 41 -20 25 -24
36 -15 45 15 15 27 14 27 -4 0 -8 7 -15 15 -15 8 0 15 -4 15 -9 0 -5 5 -22 11
-38 7 -20 12 -24 18 -14 7 10 11 8 16 -9 5 -16 9 -19 15 -10 6 9 10 6 15 -10
5 -17 9 -19 16 -9 5 9 21 -14 50 -75 38 -79 61 -108 75 -93 3 2 -28 67 -68
143 -40 77 -102 209 -138 294 -36 85 -108 234 -160 330 -141 260 -148 277
-171 398 l-21 111 21 29 c11 16 18 32 14 36 -3 3 25 6 63 6 128 0 372 71 664
193 111 46 146 64 198 100 73 49 160 80 206 73 48 -8 140 -48 152 -67 13 -21
59 -153 124 -357 33 -103 72 -206 89 -234 17 -27 31 -58 31 -68 0 -18 19 -30
46 -30 8 0 32 16 54 36 21 20 44 33 50 29 6 -3 10 3 10 15 0 36 115 251 188
351 38 53 77 110 87 128 15 31 19 32 57 26 33 -6 44 -3 66 17 15 13 42 34 61
47 33 23 35 23 48 6 7 -11 13 -22 13 -27 0 -4 5 -8 10 -8 6 0 8 10 6 22 -31
152 -31 154 -2 243 15 47 31 87 37 90 5 4 9 32 10 63 1 106 9 107 71 12 30
-47 65 -103 78 -125 13 -22 64 -92 113 -155 49 -63 134 -186 190 -273 138
-213 150 -233 192 -305 20 -34 38 -62 41 -62 3 0 0 9 -6 20 -6 11 -9 24 -6 28
3 5 -4 21 -15 38 -10 16 -19 36 -19 45 0 9 -7 22 -15 29 -8 7 -12 16 -9 21 3
5 1 9 -4 9 -9 0 -162 231 -162 245 0 4 8 1 17 -6 16 -13 16 -13 0 10 -12 18
-13 29 -6 43 8 14 5 26 -13 51 -13 17 -22 37 -20 44 1 6 -2 14 -8 18 -5 3 -10
12 -10 20 0 25 49 -8 56 -38 3 -15 12 -34 21 -42 8 -8 30 -52 48 -98 19 -45
34 -76 35 -69 0 17 -45 153 -69 206 -107 235 -284 885 -248 908 7 5 73 28 147
52 204 67 523 142 730 172 198 28 277 49 150 38 -146 -12 -184 -12 -197 2 -15
15 -2 27 21 18 9 -3 16 -1 16 5 0 8 14 9 42 5 30 -5 39 -4 34 4 -4 7 -3 12 3
12 5 0 12 -6 14 -12 3 -8 6 -6 6 5 1 9 -5 17 -11 18 -7 0 -2 5 12 11 16 6 85
8 193 3 144 -6 167 -4 167 8 0 12 -23 16 -117 21 -237 12 -420 26 -523 40 -58
9 -226 20 -375 25 -269 11 -270 11 -370 45 -86 30 -102 38 -115 65 -8 17 -21
31 -27 31 -18 0 -16 7 12 44 29 38 43 76 90 240 52 185 98 486 96 641 -1 162
13 219 65 271 23 23 57 50 75 59 31 16 39 16 128 1 53 -10 166 -33 251 -53
165 -37 366 -59 388 -41 15 13 16 55 1 98 -9 26 -9 34 2 41 11 6 10 9 -4 15
-29 11 -163 226 -213 342 -26 59 -56 120 -66 135 -21 29 -19 34 20 76 8 8 11
23 7 35 -4 12 -9 47 -11 78 l-5 57 38 3 c31 3 34 5 18 12 -11 4 -33 14 -50 21
-16 7 -46 18 -66 24 -33 10 -85 59 -175 162 -11 13 -40 37 -62 52 -23 16 -42
32 -42 36 0 10 110 21 215 21 44 0 123 7 175 15 93 14 286 29 523 41 94 5 117
9 117 21 0 12 -23 14 -167 8 -108 -5 -177 -3 -193 3 -14 6 -19 11 -12 11 6 1
12 9 11 19 0 10 -3 12 -6 5 -2 -7 -9 -13 -14 -13 -6 0 -7 5 -3 12 5 8 -4 9
-34 4 -28 -4 -42 -3 -42 5 0 6 -7 8 -16 5 -23 -9 -36 3 -21 18 13 14 51 14
197 2 127 -11 48 10 -150 38 -207 30 -526 105 -730 172 -74 24 -140 47 -147
52 -36 23 141 673 248 908 24 53 69 189 69 206 -1 7 -16 -24 -35 -69 -18 -46
-40 -90 -48 -98 -9 -8 -18 -27 -21 -42 -7 -30 -56 -63 -56 -38 0 8 5 17 10 20
6 4 9 12 8 18 -2 7 7 27 20 44 18 25 21 37 13 51 -7 14 -6 25 6 43 16 23 16
23 0 10 -9 -7 -17 -10 -17 -6 0 14 153 245 162 245 5 0 7 4 4 9 -3 5 1 14 9
21 8 7 15 20 15 29 0 9 9 29 19 45 11 17 18 33 15 38 -3 4 0 17 6 28 6 11 9
20 6 20 -3 0 -21 -28 -41 -62 -42 -72 -54 -92 -192 -305 -56 -87 -141 -210
-190 -273 -49 -63 -125 -173 -169 -245 -44 -71 -105 -170 -135 -218 -39 -63
-79 -111 -142 -169 -81 -75 -90 -80 -135 -82 l-49 -3 -22 48 c-56 123 -497
508 -694 606 -75 38 -143 99 -161 144 -9 21 -16 68 -17 105 -2 65 -1 66 43
112 24 26 57 63 73 82 15 19 81 93 147 164 65 70 130 150 144 178 14 27 31 51
39 55 21 7 19 47 -3 66 -10 9 -36 20 -58 25 -24 5 -38 14 -36 22 2 9 -4 10
-20 5 -54 -17 -284 -25 -388 -13 -58 6 -127 11 -153 10 -48 -1 -49 -1 -64 38
-11 27 -23 40 -42 45 -34 8 -111 48 -111 58 0 4 7 19 16 32 26 39 4 29 -66
-30 -36 -31 -81 -60 -102 -65 -21 -6 -55 -14 -77 -20 -21 -5 -50 -10 -64 -10
-14 0 -47 -11 -73 -25 -44 -24 -84 -32 -84 -19 0 4 28 59 62 123 35 64 92 186
128 271 36 85 98 217 138 294 40 76 71 141 68 143 -14 15 -37 -14 -75 -93 -29
-61 -45 -84 -50 -75 -7 10 -11 8 -16 -9 -5 -16 -9 -19 -15 -10 -6 9 -10 6 -15
-10 -5 -17 -9 -19 -16 -9 -6 10 -11 6 -18 -14 -6 -16 -11 -33 -11 -38 0 -5 -7
-9 -15 -9 -8 0 -15 -7 -15 -15 0 -18 -12 -19 -27 -4 -9 9 -5 20 15 45 15 19
27 37 27 41 0 13 68 103 77 103 4 0 8 5 8 12 0 6 8 21 17 32 10 12 -2 3 -25
-19 -24 -22 -62 -65 -85 -95 -103 -136 -172 -216 -322 -374 -148 -156 -344
-336 -365 -336 -21 0 -217 180 -365 336 -150 158 -219 238 -322 374 -23 30
-61 73 -85 95 -23 22 -35 31 -25 19 9 -11 17 -26 17 -32 0 -7 4 -12 8 -12 9 0
77 -90 77 -103 0 -4 12 -22 27 -41 20 -25 24 -36 15 -45 -15 -15 -27 -14 -27
4 0 8 -6 15 -14 15 -8 0 -17 13 -21 30 -7 31 -25 51 -25 28 -1 -7 -8 0 -16 15
-8 15 -19 25 -24 22 -6 -4 -10 0 -10 7 0 10 -3 9 -9 -1 -7 -11 -21 8 -53 75
-26 53 -51 90 -61 92 -9 2 -17 1 -17 -2z m2540 -916 c0 -4 -10 -15 -21 -26
-12 -10 -72 -89 -134 -174 -63 -85 -134 -182 -159 -215 -25 -33 -59 -86 -76
-117 -38 -71 -93 -118 -137 -118 -46 0 -45 -33 1 -55 19 -9 73 -52 120 -95 47
-43 117 -98 155 -121 80 -49 79 -47 105 -244 9 -61 22 -142 31 -179 19 -81 13
-89 -50 -78 -45 7 -86 7 -160 -2 -27 -4 -81 -10 -120 -15 -38 -4 -73 -6 -77
-4 -18 10 -5 22 52 47 33 15 60 31 60 36 0 5 12 16 28 25 l27 16 -45 -6 c-25
-3 -71 -12 -103 -19 l-58 -15 -21 47 c-12 26 -22 49 -22 52 -5 25 -35 82 -61
115 -37 48 -62 87 -63 98 0 5 -12 21 -26 36 -15 15 -28 38 -31 51 -5 25 -15
40 -15 21 0 -6 -20 11 -45 39 -25 28 -45 55 -45 61 0 6 -26 41 -58 77 -56 65
-162 201 -192 246 -8 13 -25 36 -38 52 -12 16 -21 31 -20 34 2 3 -7 19 -20 37
-35 49 -28 85 18 97 14 4 45 16 70 26 25 11 83 26 129 34 47 9 89 20 95 26 6
6 3 8 -10 6 -10 -2 -36 -6 -56 -10 -62 -11 -43 1 45 28 108 33 299 66 412 71
94 4 197 14 203 20 11 11 -13 46 -36 52 l-27 7 25 7 c14 4 41 8 60 8 26 1 31
4 20 11 -10 6 4 10 45 13 103 6 225 5 225 -3z m-3647 -380 c76 -187 196 -451
230 -508 30 -48 37 -70 37 -110 0 -28 -4 -54 -10 -57 -15 -9 -12 -32 6 -39 9
-3 27 3 42 14 14 11 71 34 126 51 56 18 140 52 189 76 125 64 489 153 624 153
l91 0 -15 -32 c-19 -38 -93 -123 -93 -106 0 18 -10 3 -15 -22 -3 -13 -16 -36
-31 -51 -14 -15 -25 -30 -25 -33 2 -8 -26 -52 -64 -101 -26 -33 -56 -89 -61
-115 -1 -6 -26 -63 -59 -137 l-23 -51 -44 4 c-23 3 -59 8 -78 11 -106 17 -159
18 -290 8 -52 -4 -112 -8 -132 -9 -21 0 -38 -5 -38 -9 0 -4 -10 -3 -21 4 -15
8 -19 8 -15 0 4 -6 0 -12 -11 -12 -72 -6 -105 -10 -177 -23 -73 -13 -170 -26
-326 -44 -98 -10 -180 -6 -197 11 -13 12 -14 21 -4 48 6 17 11 48 11 68 0 20
12 68 26 106 14 39 27 79 28 91 2 11 7 27 11 35 8 12 6 12 -8 0 -9 -7 -17 -23
-17 -34 0 -14 -3 -18 -10 -11 -7 7 -5 30 5 69 19 74 90 271 110 305 8 14 29
54 45 90 17 36 40 82 50 103 11 22 20 43 20 48 0 13 -54 11 -68 -3 -19 -19
-15 7 9 53 11 23 16 38 10 34 -19 -11 -12 7 35 95 26 47 54 100 63 118 13 28
17 30 23 15 4 -10 22 -56 41 -103z m3653 -780 c101 -104 129 -140 204 -263
l23 -39 -64 6 c-35 2 -68 5 -72 5 -5 1 -5 6 -1 12 4 8 0 8 -15 0 -11 -7 -21
-8 -21 -4 0 4 -20 8 -45 9 -25 0 -47 2 -49 5 -3 2 -16 70 -30 149 -13 80 -32
167 -40 193 -9 27 -12 47 -8 45 4 -2 57 -55 118 -118z m-1795 -3 c7 -17 16
-34 20 -37 4 -3 13 -21 22 -41 13 -31 13 -40 0 -70 -7 -18 -21 -41 -29 -51 -9
-9 -13 -22 -9 -27 3 -6 1 -12 -4 -12 -6 -1 -14 -2 -18 -3 -34 -8 -183 -26
-245 -30 l-76 -6 1 39 c2 28 10 46 30 65 15 14 27 22 27 19 0 -3 11 5 23 18
101 103 135 122 178 99 10 -6 19 -8 19 -5 0 3 -14 12 -31 19 l-31 13 31 19
c49 32 77 29 92 -9z m393 -18 c-9 -15 8 -10 28 8 16 14 18 14 18 1 0 -9 -7
-21 -15 -28 -8 -7 -15 -22 -14 -34 0 -21 0 -21 9 -1 11 29 37 49 45 35 3 -5 4
-14 1 -19 -6 -9 30 -24 50 -22 7 1 15 -6 18 -15 4 -11 2 -15 -8 -11 -10 4 -13
1 -9 -9 3 -7 8 -14 12 -14 4 0 15 -19 25 -41 14 -30 21 -38 27 -28 7 11 9 10
9 -3 0 -10 6 -18 13 -19 9 0 9 -2 -1 -6 -6 -2 -10 -8 -7 -13 10 -16 -71 -21
-155 -11 -47 6 -86 11 -88 11 -2 0 0 5 3 11 4 5 0 18 -9 27 -8 10 -22 33 -29
51 -16 39 -8 68 40 144 25 40 26 40 35 18 4 -12 6 -27 2 -32z m-289 -614 c-1
-11 -3 -30 -4 -42 0 -13 -10 -32 -22 -44 -11 -11 -18 -24 -14 -27 7 -8 94 -28
181 -42 78 -12 257 -78 307 -112 l39 -26 -39 -12 c-79 -24 -189 -73 -271 -121
-48 -27 -93 -49 -102 -49 -8 0 -51 21 -95 46 -93 54 -188 95 -297 130 -72 23
-78 27 -78 52 0 15 -6 55 -13 89 l-14 63 39 40 c21 22 45 40 52 40 8 0 17 7
20 16 5 12 13 14 38 8 18 -4 48 -6 66 -6 18 1 30 -2 27 -7 -2 -5 14 -5 36 0
23 5 51 7 63 4 17 -5 18 -4 6 4 -12 8 -8 11 20 12 35 2 35 2 5 7 l-30 5 30 6
c35 8 53 -5 50 -34z m2912 -378 c10 -12 34 -32 53 -44 19 -12 53 -45 75 -73
22 -28 51 -58 65 -67 21 -14 20 -11 -9 25 -18 23 -29 42 -25 42 14 0 176 -166
227 -233 29 -37 54 -62 56 -56 2 6 13 -13 25 -43 12 -29 44 -83 72 -119 27
-36 54 -74 60 -85 9 -16 14 -17 27 -6 9 8 17 27 19 45 l3 31 29 -42 c16 -23
31 -40 34 -38 6 7 31 -27 77 -104 21 -36 47 -78 58 -94 l20 -29 -24 6 c-13 4
-85 14 -159 22 -74 9 -190 23 -257 31 -68 7 -164 14 -215 14 -105 0 -176 24
-185 60 -4 14 -12 20 -26 18 -17 -3 -20 -12 -23 -63 -1 -33 -12 -98 -23 -145
-12 -47 -21 -116 -21 -155 -1 -88 -5 -108 -74 -343 -44 -151 -68 -213 -107
-283 l-51 -90 -19 36 c-11 20 -16 41 -13 47 5 7 2 8 -6 3 -10 -6 -12 -1 -8 18
3 15 2 25 -1 22 -4 -2 -13 11 -20 28 -7 18 -19 46 -27 64 -8 17 -14 36 -14 43
0 6 -6 18 -14 25 -7 7 -26 44 -42 82 -16 37 -33 74 -39 81 -5 7 -14 18 -20 25
-54 66 -135 178 -135 187 0 9 81 121 135 187 6 7 15 18 20 25 6 7 23 44 39 81
16 38 35 75 42 82 8 7 14 19 14 25 0 7 6 26 14 43 8 18 20 46 27 64 7 17 16
30 20 28 3 -3 4 7 1 22 -4 19 -2 24 8 18 9 -5 11 -4 6 4 -4 6 -1 22 6 34 8 12
25 51 38 87 25 70 99 250 130 315 10 22 22 52 25 68 4 15 13 27 21 27 8 0 14
6 14 13 0 24 31 57 55 57 13 0 32 -10 42 -23z m-1779 -17 c45 0 135 -100 148
-165 2 -10 22 -37 44 -58 22 -22 40 -46 40 -54 0 -8 4 -12 9 -8 5 3 12 1 15
-3 11 -18 -70 -45 -110 -38 -33 7 -36 5 -31 -11 3 -10 15 -51 27 -92 11 -40
27 -86 35 -100 12 -25 10 -34 -26 -114 -21 -48 -39 -91 -39 -96 0 -18 -21 -23
-38 -8 -9 8 -47 31 -84 51 -38 21 -68 40 -68 42 0 2 20 2 45 0 57 -4 67 9 18
25 -21 6 -59 22 -84 35 l-46 23 -6 133 c-3 80 -14 172 -27 232 l-22 99 34 26
c18 14 49 41 68 58 23 22 42 31 55 28 11 -3 30 -5 43 -5z m-1945 -232 c-7 -35
-16 -133 -20 -218 -3 -85 -10 -161 -15 -167 -6 -7 -51 -36 -102 -65 -100 -57
-151 -95 -239 -176 -34 -32 -63 -52 -72 -48 -8 3 -47 17 -88 31 -73 26 -75 28
-87 71 -7 24 -10 61 -7 82 5 25 3 32 -3 22 -9 -13 -10 -13 -10 0 0 9 9 23 20
33 11 9 20 24 20 32 0 9 4 14 9 11 5 -3 12 6 16 21 5 21 8 24 16 12 7 -12 9
-12 9 1 0 9 8 32 18 52 12 23 14 34 7 32 -7 -3 -17 -15 -23 -27 -7 -15 -11
-17 -11 -6 -1 8 12 30 29 49 16 18 28 36 25 39 -3 2 -12 -4 -20 -15 -8 -11
-15 -14 -15 -6 0 6 9 21 21 33 l20 20 32 -24 c18 -13 39 -38 47 -55 8 -17 18
-31 21 -29 3 1 48 48 99 104 97 106 191 189 257 229 59 35 62 32 46 -38z
m1109 -127 c-1 -7 2 -10 7 -7 5 4 17 -4 25 -16 9 -12 16 -19 16 -15 0 5 16 -4
36 -20 20 -15 45 -28 56 -30 11 -2 33 -14 49 -27 16 -14 48 -34 71 -46 58 -29
84 -65 72 -99 -11 -28 -7 -28 -119 -16 -100 11 -121 21 -151 73 -14 26 -44 75
-66 108 -35 56 -38 64 -27 88 12 26 37 31 31 7z m-393 -45 c12 -21 9 -28 -23
-72 -102 -137 -105 -139 -223 -154 -39 -5 -83 -12 -97 -16 -20 -5 -27 0 -41
26 -9 18 -14 34 -11 38 3 3 1 11 -5 19 -9 10 -7 13 8 13 24 0 130 53 158 80
11 11 30 21 42 23 11 1 37 15 57 30 20 16 36 26 36 23 0 -3 10 -1 23 4 39 15
63 11 76 -14z m-2335 -158 c-5 -7 -2 -8 6 -3 10 6 12 1 8 -18 -3 -15 -2 -25 1
-22 4 2 13 -11 20 -28 7 -18 19 -46 27 -64 8 -17 14 -36 14 -43 0 -6 6 -18 14
-25 7 -7 26 -44 42 -82 16 -37 33 -74 39 -81 5 -7 15 -18 20 -25 54 -66 135
-178 135 -187 0 -9 -81 -121 -135 -187 -5 -7 -15 -18 -20 -25 -6 -7 -23 -44
-39 -81 -16 -38 -35 -75 -42 -82 -8 -7 -14 -19 -14 -25 0 -7 -6 -26 -14 -43
-8 -18 -20 -46 -27 -64 -7 -17 -16 -30 -20 -28 -3 3 -4 -7 -1 -22 4 -19 2 -24
-8 -18 -9 5 -11 4 -6 -4 4 -6 1 -22 -6 -34 -8 -12 -25 -51 -38 -87 -25 -70
-99 -250 -130 -315 -10 -22 -22 -52 -25 -67 -4 -16 -12 -28 -19 -28 -6 0 -18
-15 -26 -33 -19 -41 -59 -48 -86 -15 -11 13 -35 33 -54 45 -19 12 -53 45 -75
73 -22 28 -51 58 -65 67 -21 14 -20 11 9 -25 18 -23 29 -42 25 -42 -14 0 -176
166 -227 233 -29 37 -54 62 -56 56 -2 -6 -13 13 -25 43 -12 29 -44 83 -72 119
-27 36 -54 74 -60 85 -9 16 -14 17 -27 6 -9 -8 -17 -27 -19 -45 l-3 -31 -29
42 c-16 23 -31 40 -34 38 -6 -7 -31 27 -77 104 -21 36 -47 78 -58 94 l-20 29
24 -6 c13 -4 85 -14 159 -22 74 -9 190 -23 257 -31 68 -7 164 -14 215 -14 105
0 176 -24 185 -60 4 -14 12 -20 26 -18 17 3 20 12 23 63 1 33 12 98 23 145 12
47 21 117 21 155 1 88 5 108 74 343 44 151 68 213 107 283 l51 90 19 -36 c11
-20 16 -41 13 -47z m2597 -384 c8 -8 20 -14 25 -14 15 0 59 -50 79 -89 13 -25
16 -52 13 -107 -3 -63 -7 -77 -34 -111 -17 -21 -40 -43 -51 -48 -12 -6 -28
-17 -37 -24 -24 -20 -152 -18 -175 3 -10 9 -22 16 -27 16 -15 0 -59 50 -79 89
-13 25 -16 52 -13 107 3 63 7 77 34 111 17 21 40 43 51 48 12 6 27 16 34 22
30 24 152 22 180 -3z m703 4 c-10 -34 -20 -187 -12 -182 5 3 8 -4 8 -16 0 -12
-3 -19 -7 -17 -5 3 -6 -21 -5 -53 l4 -59 -43 -30 c-23 -17 -45 -31 -48 -31 -4
0 -13 17 -21 38 -8 20 -17 41 -19 46 -2 5 4 6 13 3 21 -8 20 -1 -2 31 -47 70
-48 79 -23 145 13 34 30 81 38 105 l15 42 55 0 c51 0 54 -1 47 -22z m-1464
-45 c8 -21 17 -42 19 -47 2 -5 -4 -6 -13 -3 -21 8 -20 1 2 -31 47 -70 48 -79
23 -145 -13 -34 -30 -81 -38 -104 l-15 -43 -55 0 c-51 0 -54 1 -47 22 10 34
20 187 12 182 -5 -3 -8 4 -8 16 0 12 3 19 8 17 4 -3 5 21 4 53 l-4 59 43 30
c23 17 45 31 48 31 4 0 13 -17 21 -37z m2093 -418 c73 -26 75 -28 87 -71 7
-24 10 -61 7 -82 -5 -25 -3 -32 3 -22 9 13 10 13 10 0 0 -9 -9 -23 -20 -33
-11 -9 -20 -24 -20 -32 0 -9 -4 -14 -9 -11 -5 3 -12 -6 -16 -21 -5 -21 -8 -24
-16 -12 -7 12 -9 12 -9 -1 0 -9 -8 -32 -18 -52 -12 -23 -14 -34 -7 -32 7 3 17
15 23 27 7 15 11 17 11 6 1 -8 -12 -30 -29 -49 -16 -18 -28 -36 -25 -39 3 -2
12 4 20 15 8 11 15 14 15 7 0 -7 -9 -22 -21 -34 l-20 -20 -32 24 c-18 13 -39
38 -47 55 -8 17 -18 31 -21 29 -3 -1 -47 -47 -97 -102 -51 -55 -120 -124 -155
-153 -57 -49 -139 -102 -157 -102 -4 0 -1 28 7 63 7 34 16 132 20 217 3 85 10
161 15 167 6 7 51 36 102 65 100 57 151 95 239 176 34 32 63 52 72 48 8 -3 47
-17 88 -31z m-2558 -124 c3 -6 39 -28 80 -51 41 -23 75 -43 75 -46 0 -2 -20
-2 -45 0 -57 4 -67 -9 -18 -25 21 -6 59 -22 84 -35 l46 -23 6 -133 c3 -80 14
-172 27 -231 12 -55 20 -100 18 -101 -2 -2 -33 -28 -70 -59 -67 -56 -67 -57
-113 -48 -71 13 -146 91 -161 166 -2 10 -22 37 -44 58 -22 22 -40 46 -40 54 0
8 -4 12 -9 8 -5 -3 -12 -1 -15 3 -11 18 70 45 110 38 33 -7 36 -5 31 11 -3 10
-15 51 -27 92 -11 40 -27 86 -35 100 -12 25 -11 33 20 102 19 41 39 86 44 102
10 27 25 35 36 18z m700 -117 c99 -10 121 -20 151 -72 14 -26 44 -75 66 -108
35 -56 38 -64 27 -88 -12 -26 -37 -31 -31 -7 1 7 -2 10 -7 7 -5 -4 -17 4 -25
16 -9 12 -16 19 -16 15 0 -5 -16 4 -36 20 -20 15 -46 29 -57 30 -12 2 -30 12
-42 22 -11 11 -42 31 -70 47 -77 42 -97 73 -74 116 8 14 17 18 32 14 12 -3 49
-9 82 -12z m990 -15 c9 -17 14 -33 11 -37 -3 -3 -1 -11 5 -19 9 -10 7 -13 -8
-13 -24 0 -130 -53 -158 -80 -11 -11 -30 -21 -41 -23 -11 -1 -35 -14 -54 -27
-19 -13 -39 -25 -45 -27 -73 -16 -81 -15 -94 9 -12 23 -9 29 26 78 78 108 100
128 156 139 54 10 153 27 174 30 7 0 20 -13 28 -30z m-460 -585 c93 -54 188
-95 298 -130 71 -23 77 -27 77 -52 0 -15 6 -55 13 -89 l14 -63 -39 -40 c-21
-22 -45 -40 -52 -40 -8 0 -17 -7 -20 -16 -5 -12 -13 -14 -38 -8 -18 4 -48 6
-66 6 -18 -1 -30 2 -27 7 2 5 -14 5 -36 0 -23 -5 -51 -7 -63 -4 -17 5 -18 4
-6 -4 12 -8 8 -11 -20 -12 l-35 -1 30 -7 30 -7 -31 -5 c-32 -5 -50 6 -48 31 0
8 2 27 2 43 1 15 11 36 23 48 11 11 18 24 14 27 -7 8 -94 28 -181 42 -78 12
-257 78 -307 112 l-39 26 39 12 c79 24 189 73 271 121 48 27 93 49 102 49 8 0
51 -21 95 -46z m2323 -718 c12 -11 12 -20 3 -47 -6 -17 -11 -48 -11 -68 0 -20
-12 -68 -26 -106 -14 -39 -27 -79 -28 -91 -2 -11 -7 -27 -11 -35 -8 -12 -6
-12 8 0 9 7 17 23 17 34 0 14 3 18 10 11 7 -7 5 -30 -5 -69 -19 -74 -90 -271
-110 -305 -8 -14 -29 -54 -45 -90 -17 -36 -40 -82 -50 -103 -11 -22 -20 -43
-20 -48 0 -13 54 -11 68 3 19 19 15 -7 -9 -53 -11 -23 -16 -38 -10 -34 6 3 11
4 11 0 0 -5 -48 -100 -104 -204 l-24 -44 -17 54 c-10 30 -31 83 -48 119 -16
36 -61 137 -99 225 -38 88 -87 190 -108 227 -32 54 -40 76 -40 117 0 27 5 53
10 56 15 9 12 32 -6 39 -9 3 -27 -3 -42 -14 -14 -11 -71 -34 -126 -51 -56 -18
-140 -52 -189 -76 -125 -64 -489 -153 -625 -153 l-93 0 17 33 c20 38 94 122
94 105 0 -18 10 -3 15 22 3 13 16 36 31 51 14 15 25 29 23 31 -4 4 28 54 66
103 26 33 56 89 61 115 1 6 26 63 59 137 l23 51 44 -4 c23 -3 59 -8 78 -11
106 -17 159 -18 290 -8 52 4 112 8 132 9 21 0 38 5 38 9 0 4 10 3 21 -4 15 -8
19 -8 15 0 -4 6 0 12 11 12 72 6 105 10 177 23 81 15 221 33 326 42 30 3 56 7
58 9 10 10 127 -6 140 -19z m-4125 -55 c5 -1 5 -6 1 -12 -4 -8 0 -8 15 0 11 7
21 8 21 4 0 -4 20 -8 45 -9 25 0 47 -2 49 -5 3 -2 16 -70 30 -149 13 -80 32
-167 40 -193 9 -27 12 -47 8 -45 -4 2 -57 55 -118 118 -101 104 -129 140 -204
263 l-23 39 64 -6 c35 -2 68 -5 72 -5z m624 -18 c2 -5 -23 -22 -57 -37 -33
-15 -60 -31 -60 -36 0 -5 -12 -16 -27 -25 l-28 -16 45 6 c25 3 71 12 103 19
l58 15 21 -47 c12 -26 22 -49 22 -52 5 -25 35 -82 61 -115 38 -49 66 -93 64
-101 0 -3 11 -18 25 -33 15 -15 28 -38 31 -51 5 -25 15 -40 15 -21 0 6 20 -11
45 -39 25 -28 45 -55 45 -61 0 -6 26 -41 58 -77 56 -65 162 -201 192 -246 8
-13 26 -38 40 -55 14 -18 23 -33 20 -34 -3 -1 5 -16 18 -34 35 -49 28 -85 -18
-97 -14 -4 -45 -16 -70 -26 -25 -11 -83 -26 -129 -34 -47 -9 -89 -20 -95 -26
-6 -6 -3 -8 10 -6 10 2 36 6 57 10 61 11 42 -1 -45 -28 -109 -33 -300 -66
-413 -71 -94 -4 -197 -14 -203 -20 -11 -11 13 -46 36 -52 l27 -7 -25 -7 c-14
-4 -41 -8 -60 -8 -24 -1 -31 -4 -21 -10 11 -7 -135 -20 -246 -21 -29 0 -29 11
-2 36 12 10 72 89 134 174 63 85 134 182 159 215 25 33 59 86 76 117 38 71 93
118 137 118 46 0 45 33 -1 55 -19 9 -73 52 -120 95 -47 43 -117 98 -155 121
-80 49 -79 47 -105 244 -9 61 -22 142 -31 179 -19 81 -13 89 50 78 58 -10 78
-8 275 17 74 9 82 9 87 -6z m1600 -32 c-2 -28 -10 -46 -30 -65 -15 -14 -27
-22 -27 -19 0 3 -11 -5 -23 -18 -101 -103 -135 -122 -178 -99 -10 6 -19 8 -19
5 0 -3 14 -12 31 -19 l30 -13 -27 -17 c-14 -10 -39 -20 -54 -22 -23 -4 -29 0
-41 28 -7 18 -16 35 -20 38 -4 3 -13 21 -22 41 -13 31 -13 40 0 70 7 18 21 41
29 51 9 9 13 22 9 27 -3 6 -1 12 4 12 6 1 14 2 19 3 26 7 186 27 227 29 28 2
60 4 72 5 19 2 21 -3 20 -37z m-725 3 c21 -4 35 -11 32 -16 -3 -5 1 -17 10
-26 8 -10 22 -33 29 -51 13 -30 13 -39 0 -70 -9 -20 -18 -38 -22 -41 -3 -3
-12 -18 -19 -33 -15 -35 -35 -25 -30 14 4 23 2 26 -9 18 -10 -9 -13 -5 -13 22
0 26 -3 30 -10 19 -7 -12 -10 -8 -10 15 l0 30 -13 -25 c-7 -14 -19 -26 -27
-27 -17 -4 -100 116 -100 144 0 15 -2 16 -10 3 -8 -12 -10 -11 -10 8 0 21 4
22 83 22 45 0 99 -3 119 -6z"/>
<path d="M4010 6416 c0 -2 8 -10 18 -17 15 -13 16 -12 3 4 -13 16 -21 21 -21
13z"/>
<path d="M3938 6353 c6 -2 18 -2 25 0 6 3 1 5 -13 5 -14 0 -19 -2 -12 -5z"/>
<path d="M4021 6304 c0 -11 3 -14 6 -6 3 7 2 16 -1 19 -3 4 -6 -2 -5 -13z"/>
<path d="M4504 6335 c-3 -8 -4 -20 -2 -27 3 -7 7 -1 10 15 6 29 1 36 -8 12z"/>
<path d="M4471 2194 c0 -11 3 -14 6 -6 3 7 2 16 -1 19 -3 4 -6 -2 -5 -13z"/>
<path d="M4538 2143 c6 -2 18 -2 25 0 6 3 1 5 -13 5 -14 0 -19 -2 -12 -5z"/>
<path d="M4460 2106 c0 -2 8 -10 18 -17 15 -13 16 -12 3 4 -13 16 -21 21 -21
13z"/>
<path d="M4021 2194 c0 -11 3 -14 6 -6 3 7 2 16 -1 19 -3 4 -6 -2 -5 -13z"/>
<path d="M865 7450 c9 -16 18 -30 21 -30 2 0 -2 14 -11 30 -9 17 -18 30 -21
30 -2 0 2 -13 11 -30z"/>
<path d="M7625 7450 c-9 -16 -13 -30 -11 -30 3 0 12 14 21 30 9 17 13 30 11
30 -3 0 -12 -13 -21 -30z"/>
<path d="M330 5609 c0 -5 5 -7 10 -4 6 3 10 8 10 11 0 2 -4 4 -10 4 -5 0 -10
-5 -10 -11z"/>
<path d="M8155 5610 c3 -5 8 -10 11 -10 2 0 4 5 4 10 0 6 -5 10 -11 10 -5 0
-7 -4 -4 -10z"/>
<path d="M298 5603 c7 -3 16 -2 19 1 4 3 -2 6 -13 5 -11 0 -14 -3 -6 -6z"/>
<path d="M8188 5603 c7 -3 16 -2 19 1 4 3 -2 6 -13 5 -11 0 -14 -3 -6 -6z"/>
<path d="M298 2893 c7 -3 16 -2 19 1 4 3 -2 6 -13 5 -11 0 -14 -3 -6 -6z"/>
<path d="M330 2890 c0 -5 5 -10 11 -10 5 0 7 5 4 10 -3 6 -8 10 -11 10 -2 0
-4 -4 -4 -10z"/>
<path d="M8155 2890 c-3 -5 -1 -10 4 -10 6 0 11 5 11 10 0 6 -2 10 -4 10 -3 0
-8 -4 -11 -10z"/>
<path d="M8188 2893 c7 -3 16 -2 19 1 4 3 -2 6 -13 5 -11 0 -14 -3 -6 -6z"/>
<path d="M865 1050 c-9 -16 -13 -30 -11 -30 3 0 12 14 21 30 9 17 13 30 11 30
-3 0 -12 -13 -21 -30z"/>
<path d="M7625 1050 c9 -16 18 -30 21 -30 2 0 -2 14 -11 30 -9 17 -18 30 -21
30 -2 0 2 -13 11 -30z"/>
</g>
</svg>
